<svg xmlns="http://www.w3.org/2000/svg">
  <symbol id='settings-home-btn' viewbox='0 0 512 512'>
    <g>
    <polygon class="st0" points="442.531,218 344.828,120.297 256,31.469 167.172,120.297 69.438,218.047 0,287.469 39.984,327.453 
      109.406,258.031 207.156,160.281 256,111.438 304.844,160.281 402.531,257.984 472.016,327.453 512,287.469 	"/>
    <polygon class="st0" points="85.719,330.375 85.719,480.531 274.75,480.531 274.75,361.547 343.578,361.547 343.578,480.531 
      426.281,480.531 426.281,330.328 256.016,160.063 	"/>
    </g>
  </symbol>
  <symbol id="settings-reset-btn" viewBox="0 0 1920 1920">
    <path d="M960 0v213.333c411.627 0 746.667 334.934 746.667 746.667S1371.627 1706.667 960 1706.667 213.333 1371.733 213.333 960c0-197.013 78.4-382.507 213.334-520.747v254.08H640V106.667H53.333V320h191.04C88.64 494.08 0 720.96 0 960c0 529.28 430.613 960 960 960s960-430.72 960-960S1489.387 0 960 0" fill-rule="evenodd"/>
  </symbol>
</svg>